<?xml version="1.0" encoding="utf-8"?>
<!-- created with bpmn-js / http://bpmn.io -->
<!DOCTYPE svg PUBLIC "-//W3C//DTD SVG 1.1//EN" "http://www.w3.org/Graphics/SVG/1.1/DTD/svg11.dtd">
<svg xmlns="http://www.w3.org/2000/svg" xmlns:xlink="http://www.w3.org/1999/xlink" width="279" height="77" viewBox="192 81 279 77" version="1.1"><defs><marker id="sequenceflow-end-white-black-c4ndztd7wu9apwfzv3ws5f7yr" viewBox="0 0 20 20" refX="11" refY="10" markerWidth="10" markerHeight="10" orient="auto"><path d="M 1 5 L 11 10 L 1 15 Z" style="fill: black; stroke-width: 1px; stroke-linecap: round; stroke-dasharray: 10000, 1; stroke: black;"/></marker><marker id="conditional-default-flow-marker-white-black-c4ndztd7wu9apwfzv3ws5f7yr" viewBox="0 0 20 20" refX="0" refY="10" markerWidth="10" markerHeight="10" orient="auto"><path d="M 6 4 L 10 16" style="fill: black; stroke-width: 1px; stroke-linecap: round; stroke-dasharray: 10000, 1; stroke: black;"/></marker></defs><g class="djs-group"><g class="djs-element djs-shape" data-element-id="StartEvent_1" style="display: block;" transform="translate(208 94)"><g class="djs-visual"><circle cx="18" cy="18" r="18" style="stroke: black; stroke-width: 2px; fill: white; fill-opacity: 0.95;"/></g><rect x="0" y="0" width="36" height="36" class="djs-hit" style="fill: none; stroke-opacity: 0; stroke: white; stroke-width: 15px;"/><rect x="-6" y="-6" width="48" height="48" class="djs-outline" style="fill: none;"/></g></g><g class="djs-group"><g class="djs-element djs-shape" data-element-id="ExclusiveGateway_0t7nkkg" style="display: block;" transform="translate(309 87)"><g class="djs-visual"><polygon points="25,0 50,25 25,50 0,25" style="stroke: black; stroke-width: 2px; fill: white; fill-opacity: 0.95;"/><path d="m 16,15 7.42857142857143,9.714285714285715 -7.42857142857143,9.714285714285715 3.428571428571429,0 5.714285714285715,-7.464228571428572 5.714285714285715,7.464228571428572 3.428571428571429,0 -7.42857142857143,-9.714285714285715 7.42857142857143,-9.714285714285715 -3.428571428571429,0 -5.714285714285715,7.464228571428572 -5.714285714285715,-7.464228571428572 -3.428571428571429,0 z" style="fill: black; stroke-width: 1px; stroke: black;"/></g><rect x="0" y="0" width="50" height="50" class="djs-hit" style="fill: none; stroke-opacity: 0; stroke: white; stroke-width: 15px;"/><rect x="-6" y="-6" width="62" height="62" class="djs-outline" style="fill: none;"/></g><g class="djs-children"><g class="djs-group"><g class="djs-element djs-shape" data-element-id="ExclusiveGateway_0t7nkkg_label" style="display: block;" transform="translate(290 140)"><g class="djs-visual"><text class="djs-label" style="font-family: Arial, sans-serif; font-size: 11px;"><tspan x="0" y="12">Exlusive Gateway</tspan></text></g><rect x="0" y="0" width="88" height="12" class="djs-hit" style="fill: none; stroke-opacity: 0; stroke: white; stroke-width: 15px;"/><rect x="-6" y="-6" width="100" height="24" class="djs-outline" style="fill: none;"/></g></g></g></g><g class="djs-group"><g class="djs-element djs-shape" data-element-id="EndEvent_0a63vr7" style="display: block;" transform="translate(421 94)"><g class="djs-visual"><circle cx="18" cy="18" r="18" style="stroke: black; stroke-width: 4px; fill: white; fill-opacity: 0.95;"/></g><rect x="0" y="0" width="36" height="36" class="djs-hit" style="fill: none; stroke-opacity: 0; stroke: white; stroke-width: 15px;"/><rect x="-6" y="-6" width="48" height="48" class="djs-outline" style="fill: none;"/></g></g><g class="djs-group"><g class="djs-element djs-shape" data-element-id="EndEvent_0a63vr7_label" style="display: block;" transform="translate(413 139)"><g class="djs-visual"><text class="djs-label" style="font-family: Arial, sans-serif; font-size: 11px;"><tspan x="0" y="12">End Event</tspan></text></g><rect x="0" y="0" width="52" height="12" class="djs-hit" style="fill: none; stroke-opacity: 0; stroke: white; stroke-width: 15px;"/><rect x="-6" y="-6" width="64" height="24" class="djs-outline" style="fill: none;"/></g></g><g class="djs-group"><g class="djs-element djs-shape" data-element-id="StartEvent_1_label" style="display: block;" transform="translate(198 138)"><g class="djs-visual"><text class="djs-label" style="font-family: Arial, sans-serif; font-size: 11px;"><tspan x="0" y="12">Start Event</tspan></text></g><rect x="0" y="0" width="55" height="12" class="djs-hit" style="fill: none; stroke-opacity: 0; stroke: white; stroke-width: 15px;"/><rect x="-6" y="-6" width="67" height="24" class="djs-outline" style="fill: none;"/></g></g><g class="djs-drag-group" style="pointer-events: none;" transform="translate(-282 118)"/><g class="djs-drag-group" style="pointer-events: none;" transform="translate(-520 228)"/><g class="djs-drag-group" style="pointer-events: none;" transform="translate(0 10)"/><g class="djs-drag-group" style="pointer-events: none;" transform="translate(-294 70)"/><g class="djs-drag-group" style="pointer-events: none;" transform="translate(182 0)"/><g class="djs-drag-group" style="pointer-events: none;" transform="translate(0 0)"/><g class="djs-drag-group" style="pointer-events: none;" transform="translate(156 -238)"/><g class="djs-drag-group" style="pointer-events: none;" transform="translate(-70 -101)"/><g class="djs-drag-group" style="pointer-events: none;" transform="translate(-532 10)"/><g class="djs-drag-group" style="pointer-events: none;" transform="translate(-424 10)"/><g class="djs-drag-group" style="pointer-events: none;" transform="translate(16 0)"/><g class="djs-drag-group" style="pointer-events: none;" transform="translate(0 68)"/><g class="djs-drag-group" style="pointer-events: none;" transform="translate(-2 -18)"/><g class="djs-drag-group" style="pointer-events: none;" transform="translate(-2 -18)"/><g class="djs-drag-group" style="pointer-events: none;" transform="translate(-8 -8)"/><g class="djs-drag-group" style="pointer-events: none;" transform="translate(-68 -300)"/><g class="djs-drag-group" style="pointer-events: none;" transform="translate(0 0)"/><g class="djs-drag-group" style="pointer-events: none;" transform="translate(-6 0)"/><g class="djs-drag-group" style="pointer-events: none;" transform="translate(-12 0)"/><g class="djs-drag-group" style="pointer-events: none;" transform="translate(-3 8)"/><g class="djs-drag-group" style="pointer-events: none;" transform="translate(-1 76)"/></svg>